<svg width="21" height="20" viewBox="0 0 21 20" fill="none" xmlns="http://www.w3.org/2000/svg">
<path d="M10.6146 13.39L6.57291 17.27C6.08357 17.7234 5.43005 17.9767 4.74999 17.9767C4.06993 17.9767 3.41641 17.7234 2.92708 17.27C2.68708 17.0405 2.49665 16.7678 2.36671 16.4675C2.23678 16.1672 2.16989 15.8452 2.16989 15.52C2.16989 15.1948 2.23678 14.8728 2.36671 14.5725C2.49665 14.2722 2.68708 13.9995 2.92708 13.77L6.96874 9.89C7.16489 9.7017 7.27509 9.4463 7.27509 9.18C7.27509 8.9137 7.16489 8.65831 6.96874 8.47C6.77259 8.2817 6.50656 8.17591 6.22916 8.17591C5.95176 8.17591 5.68573 8.2817 5.48958 8.47L1.44791 12.36C0.633697 13.2108 0.193347 14.3307 0.21882 15.4858C0.244293 16.6408 0.733619 17.7418 1.58461 18.5588C2.4356 19.3757 3.58245 19.8455 4.78567 19.8699C5.98888 19.8944 7.15541 19.4716 8.04166 18.69L12.0937 14.81C12.2899 14.6217 12.4001 14.3663 12.4001 14.1C12.4001 13.8337 12.2899 13.5783 12.0937 13.39C11.8976 13.2017 11.6316 13.0959 11.3542 13.0959C11.0768 13.0959 10.8107 13.2017 10.6146 13.39V13.39ZM19.5521 1.31C18.6758 0.47401 17.4906 0.00479126 16.2552 0.00479126C15.0198 0.00479126 13.8346 0.47401 12.9583 1.31L8.90624 5.19C8.80912 5.28324 8.73208 5.39393 8.67951 5.51575C8.62695 5.63758 8.5999 5.76814 8.5999 5.9C8.5999 6.03186 8.62695 6.16243 8.67951 6.28425C8.73208 6.40607 8.80912 6.51676 8.90624 6.61C9.00337 6.70324 9.11867 6.7772 9.24557 6.82766C9.37246 6.87812 9.50847 6.90409 9.64583 6.90409C9.78318 6.90409 9.91919 6.87812 10.0461 6.82766C10.173 6.7772 10.2883 6.70324 10.3854 6.61L14.4271 2.73C14.9164 2.27663 15.5699 2.02326 16.25 2.02326C16.9301 2.02326 17.5836 2.27663 18.0729 2.73C18.3129 2.95949 18.5033 3.23221 18.6333 3.53252C18.7632 3.83283 18.8301 4.15482 18.8301 4.48C18.8301 4.80519 18.7632 5.12717 18.6333 5.42748C18.5033 5.72779 18.3129 6.00052 18.0729 6.23L14.0312 10.11C13.9336 10.203 13.8561 10.3136 13.8032 10.4354C13.7503 10.5573 13.7231 10.688 13.7231 10.82C13.7231 10.952 13.7503 11.0827 13.8032 11.2046C13.8561 11.3264 13.9336 11.437 14.0312 11.53C14.1281 11.6237 14.2433 11.6981 14.3702 11.7489C14.4972 11.7997 14.6333 11.8258 14.7708 11.8258C14.9083 11.8258 15.0445 11.7997 15.1714 11.7489C15.2984 11.6981 15.4136 11.6237 15.5104 11.53L19.5521 7.64C20.4229 6.79878 20.9117 5.66098 20.9117 4.475C20.9117 3.28903 20.4229 2.15122 19.5521 1.31V1.31ZM7.19791 13.17C7.29524 13.2627 7.41068 13.336 7.53759 13.3858C7.6645 13.4355 7.8004 13.4608 7.93749 13.46C8.07458 13.4608 8.21048 13.4355 8.33739 13.3858C8.46431 13.336 8.57974 13.2627 8.67708 13.17L13.8021 8.25C13.9982 8.0617 14.1084 7.8063 14.1084 7.54C14.1084 7.2737 13.9982 7.01831 13.8021 6.83C13.6059 6.6417 13.3399 6.53591 13.0625 6.53591C12.7851 6.53591 12.5191 6.6417 12.3229 6.83L7.19791 11.75C7.10027 11.843 7.02278 11.9536 6.9699 12.0754C6.91701 12.1973 6.88979 12.328 6.88979 12.46C6.88979 12.592 6.91701 12.7227 6.9699 12.8446C7.02278 12.9664 7.10027 13.077 7.19791 13.17Z" fill="#009CCD"/>
</svg>
