<svg width="20" height="20" viewBox="0 0 20 20" fill="none" xmlns="http://www.w3.org/2000/svg">
<path d="M10.25 10.1833C10.6946 9.79844 11.0513 9.3224 11.2957 8.78752C11.5401 8.25263 11.6667 7.67142 11.6666 7.08333C11.6666 5.97826 11.2277 4.91846 10.4463 4.13705C9.66486 3.35565 8.60505 2.91667 7.49998 2.91667C6.39491 2.91667 5.3351 3.35565 4.5537 4.13705C3.7723 4.91846 3.33331 5.97826 3.33331 7.08333C3.33331 7.67142 3.45981 8.25263 3.70425 8.78752C3.94869 9.3224 4.30533 9.79844 4.74998 10.1833C3.58343 10.7116 2.5937 11.5646 1.89913 12.6405C1.20456 13.7163 0.83454 14.9694 0.833313 16.25C0.833313 16.471 0.92111 16.683 1.07739 16.8393C1.23367 16.9955 1.44563 17.0833 1.66665 17.0833C1.88766 17.0833 2.09962 16.9955 2.2559 16.8393C2.41218 16.683 2.49998 16.471 2.49998 16.25C2.49998 14.9239 3.02676 13.6521 3.96445 12.7145C4.90213 11.7768 6.1739 11.25 7.49998 11.25C8.82606 11.25 10.0978 11.7768 11.0355 12.7145C11.9732 13.6521 12.5 14.9239 12.5 16.25C12.5 16.471 12.5878 16.683 12.7441 16.8393C12.9003 16.9955 13.1123 17.0833 13.3333 17.0833C13.5543 17.0833 13.7663 16.9955 13.9226 16.8393C14.0788 16.683 14.1666 16.471 14.1666 16.25C14.1654 14.9694 13.7954 13.7163 13.1008 12.6405C12.4063 11.5646 11.4165 10.7116 10.25 10.1833V10.1833ZM7.49998 9.58333C7.00553 9.58333 6.52218 9.43671 6.11105 9.16201C5.69993 8.8873 5.3795 8.49686 5.19028 8.04004C5.00106 7.58323 4.95155 7.08056 5.04802 6.59561C5.14448 6.11065 5.38258 5.6652 5.73221 5.31557C6.08184 4.96593 6.5273 4.72783 7.01225 4.63137C7.49721 4.53491 7.99987 4.58442 8.45669 4.77363C8.9135 4.96285 9.30395 5.28328 9.57865 5.69441C9.85336 6.10553 9.99998 6.58888 9.99998 7.08333C9.99998 7.74637 9.73659 8.38226 9.26775 8.8511C8.79891 9.31994 8.16302 9.58333 7.49998 9.58333ZM15.6166 9.85C16.15 9.24944 16.4983 8.50755 16.6198 7.71362C16.7413 6.91969 16.6308 6.10756 16.3015 5.375C15.9722 4.64244 15.4381 4.02066 14.7637 3.58452C14.0893 3.14837 13.3032 2.91645 12.5 2.91667C12.279 2.91667 12.067 3.00446 11.9107 3.16074C11.7544 3.31702 11.6666 3.52899 11.6666 3.75C11.6666 3.97101 11.7544 4.18297 11.9107 4.33926C12.067 4.49554 12.279 4.58333 12.5 4.58333C13.163 4.58333 13.7989 4.84673 14.2677 5.31557C14.7366 5.78441 15 6.42029 15 7.08333C14.9988 7.52103 14.8827 7.95075 14.6634 8.32952C14.444 8.70828 14.129 9.02282 13.75 9.24167C13.6264 9.31293 13.5232 9.41472 13.4503 9.53728C13.3773 9.65985 13.3371 9.79908 13.3333 9.94167C13.3298 10.0831 13.3624 10.2232 13.428 10.3485C13.4936 10.4739 13.5901 10.5805 13.7083 10.6583L14.0333 10.875L14.1416 10.9333C15.1461 11.4098 15.9936 12.1633 16.5841 13.1053C17.1747 14.0472 17.4838 15.1383 17.475 16.25C17.475 16.471 17.5628 16.683 17.7191 16.8393C17.8753 16.9955 18.0873 17.0833 18.3083 17.0833C18.5293 17.0833 18.7413 16.9955 18.8976 16.8393C19.0538 16.683 19.1416 16.471 19.1416 16.25C19.1485 14.9712 18.8282 13.7119 18.2112 12.5917C17.5942 11.4716 16.7011 10.5278 15.6166 9.85V9.85Z" fill="white"/>
</svg>
